<svg width="53" height="25" viewBox="0 0 53 25" fill="none" xmlns="http://www.w3.org/2000/svg">
<path d="M12.2188 24H7.39062V10.7812L7.4375 8.60938L7.51562 6.23438C6.71354 7.03646 6.15625 7.5625 5.84375 7.8125L3.21875 9.92188L0.890625 7.01562L8.25 1.15625H12.2188V24ZM34.4062 12.5781C34.4062 16.5677 33.75 19.5208 32.4375 21.4375C31.1354 23.3542 29.125 24.3125 26.4062 24.3125C23.7708 24.3125 21.7812 23.3229 20.4375 21.3438C19.1042 19.3646 18.4375 16.4427 18.4375 12.5781C18.4375 8.54688 19.0885 5.57812 20.3906 3.67188C21.6927 1.75521 23.6979 0.796875 26.4062 0.796875C29.0417 0.796875 31.0312 1.79688 32.375 3.79688C33.7292 5.79688 34.4062 8.72396 34.4062 12.5781ZM23.2344 12.5781C23.2344 15.3802 23.474 17.3906 23.9531 18.6094C24.4427 19.8177 25.2604 20.4219 26.4062 20.4219C27.5312 20.4219 28.3438 19.8073 28.8438 18.5781C29.3438 17.349 29.5938 15.349 29.5938 12.5781C29.5938 9.77604 29.3385 7.76562 28.8281 6.54688C28.3281 5.31771 27.5208 4.70312 26.4062 4.70312C25.2708 4.70312 24.4583 5.31771 23.9688 6.54688C23.4792 7.76562 23.2344 9.77604 23.2344 12.5781ZM42.9844 14.4375H36.9375V11.0156H42.9844V4.92188H46.4062V11.0156H52.4531V14.4375H46.4062V20.4531H42.9844V14.4375Z" fill="#FA8B02"/>
</svg>
