<svg width="71" height="25" viewBox="0 0 71 25" fill="none" xmlns="http://www.w3.org/2000/svg">
<path d="M12.2188 24H7.39062V10.7812L7.4375 8.60938L7.51562 6.23438C6.71354 7.03646 6.15625 7.5625 5.84375 7.8125L3.21875 9.92188L0.890625 7.01562L8.25 1.15625H12.2188V24ZM34.4062 12.5781C34.4062 16.5677 33.75 19.5208 32.4375 21.4375C31.1354 23.3542 29.125 24.3125 26.4062 24.3125C23.7708 24.3125 21.7812 23.3229 20.4375 21.3438C19.1042 19.3646 18.4375 16.4427 18.4375 12.5781C18.4375 8.54688 19.0885 5.57812 20.3906 3.67188C21.6927 1.75521 23.6979 0.796875 26.4062 0.796875C29.0417 0.796875 31.0312 1.79688 32.375 3.79688C33.7292 5.79688 34.4062 8.72396 34.4062 12.5781ZM23.2344 12.5781C23.2344 15.3802 23.474 17.3906 23.9531 18.6094C24.4427 19.8177 25.2604 20.4219 26.4062 20.4219C27.5312 20.4219 28.3438 19.8073 28.8438 18.5781C29.3438 17.349 29.5938 15.349 29.5938 12.5781C29.5938 9.77604 29.3385 7.76562 28.8281 6.54688C28.3281 5.31771 27.5208 4.70312 26.4062 4.70312C25.2708 4.70312 24.4583 5.31771 23.9688 6.54688C23.4792 7.76562 23.2344 9.77604 23.2344 12.5781ZM52.6875 12.5781C52.6875 16.5677 52.0312 19.5208 50.7188 21.4375C49.4167 23.3542 47.4062 24.3125 44.6875 24.3125C42.0521 24.3125 40.0625 23.3229 38.7188 21.3438C37.3854 19.3646 36.7188 16.4427 36.7188 12.5781C36.7188 8.54688 37.3698 5.57812 38.6719 3.67188C39.974 1.75521 41.9792 0.796875 44.6875 0.796875C47.3229 0.796875 49.3125 1.79688 50.6562 3.79688C52.0104 5.79688 52.6875 8.72396 52.6875 12.5781ZM41.5156 12.5781C41.5156 15.3802 41.7552 17.3906 42.2344 18.6094C42.724 19.8177 43.5417 20.4219 44.6875 20.4219C45.8125 20.4219 46.625 19.8073 47.125 18.5781C47.625 17.349 47.875 15.349 47.875 12.5781C47.875 9.77604 47.6198 7.76562 47.1094 6.54688C46.6094 5.31771 45.8021 4.70312 44.6875 4.70312C43.5521 4.70312 42.7396 5.31771 42.25 6.54688C41.7604 7.76562 41.5156 9.77604 41.5156 12.5781ZM61.2656 14.4375H55.2188V11.0156H61.2656V4.92188H64.6875V11.0156H70.7344V14.4375H64.6875V20.4531H61.2656V14.4375Z" fill="#FA8B02"/>
</svg>
