<svg width="53" height="24" viewBox="0 0 53 24" fill="none" xmlns="http://www.w3.org/2000/svg">
<path d="M12.2188 23H7.39062V9.78125L7.4375 7.60938L7.51562 5.23438C6.71354 6.03646 6.15625 6.5625 5.84375 6.8125L3.21875 8.92188L0.890625 6.01562L8.25 0.15625H12.2188V23ZM26.875 8.40625C29.0833 8.40625 30.8385 9.02604 32.1406 10.2656C33.4531 11.5052 34.1094 13.2031 34.1094 15.3594C34.1094 17.9115 33.3229 19.875 31.75 21.25C30.1771 22.625 27.9271 23.3125 25 23.3125C22.4583 23.3125 20.4062 22.901 18.8438 22.0781V17.9062C19.6667 18.3438 20.625 18.7031 21.7188 18.9844C22.8125 19.2552 23.849 19.3906 24.8281 19.3906C27.776 19.3906 29.25 18.1823 29.25 15.7656C29.25 13.4635 27.724 12.3125 24.6719 12.3125C24.1198 12.3125 23.5104 12.3698 22.8438 12.4844C22.1771 12.5885 21.6354 12.7031 21.2188 12.8281L19.2969 11.7969L20.1562 0.15625H32.5469V4.25H24.3906L23.9688 8.73438L24.5156 8.625C25.151 8.47917 25.9375 8.40625 26.875 8.40625ZM42.9844 13.4375H36.9375V10.0156H42.9844V3.92188H46.4062V10.0156H52.4531V13.4375H46.4062V19.4531H42.9844V13.4375Z" fill="#FA8B02"/>
</svg>
