<svg width="53" height="25" viewBox="0 0 53 25" fill="none" xmlns="http://www.w3.org/2000/svg">
<path d="M16.25 24H0.28125V20.6406L6.01562 14.8438C7.71354 13.1042 8.82292 11.901 9.34375 11.2344C9.86458 10.5573 10.2396 9.93229 10.4688 9.35938C10.6979 8.78646 10.8125 8.19271 10.8125 7.57812C10.8125 6.66146 10.5573 5.97917 10.0469 5.53125C9.54688 5.08333 8.875 4.85938 8.03125 4.85938C7.14583 4.85938 6.28646 5.0625 5.45312 5.46875C4.61979 5.875 3.75 6.45312 2.84375 7.20312L0.21875 4.09375C1.34375 3.13542 2.27604 2.45833 3.01562 2.0625C3.75521 1.66667 4.5625 1.36458 5.4375 1.15625C6.3125 0.9375 7.29167 0.828125 8.375 0.828125C9.80208 0.828125 11.0625 1.08854 12.1562 1.60938C13.25 2.13021 14.099 2.85938 14.7031 3.79688C15.3073 4.73438 15.6094 5.80729 15.6094 7.01562C15.6094 8.06771 15.4219 9.05729 15.0469 9.98438C14.6823 10.901 14.1094 11.8438 13.3281 12.8125C12.5573 13.7812 11.1927 15.1615 9.23438 16.9531L6.29688 19.7188V19.9375H16.25V24ZM34.4062 12.5781C34.4062 16.5677 33.75 19.5208 32.4375 21.4375C31.1354 23.3542 29.125 24.3125 26.4062 24.3125C23.7708 24.3125 21.7812 23.3229 20.4375 21.3438C19.1042 19.3646 18.4375 16.4427 18.4375 12.5781C18.4375 8.54688 19.0885 5.57812 20.3906 3.67188C21.6927 1.75521 23.6979 0.796875 26.4062 0.796875C29.0417 0.796875 31.0312 1.79688 32.375 3.79688C33.7292 5.79688 34.4062 8.72396 34.4062 12.5781ZM23.2344 12.5781C23.2344 15.3802 23.474 17.3906 23.9531 18.6094C24.4427 19.8177 25.2604 20.4219 26.4062 20.4219C27.5312 20.4219 28.3438 19.8073 28.8438 18.5781C29.3438 17.349 29.5938 15.349 29.5938 12.5781C29.5938 9.77604 29.3385 7.76562 28.8281 6.54688C28.3281 5.31771 27.5208 4.70312 26.4062 4.70312C25.2708 4.70312 24.4583 5.31771 23.9688 6.54688C23.4792 7.76562 23.2344 9.77604 23.2344 12.5781ZM42.9844 14.4375H36.9375V11.0156H42.9844V4.92188H46.4062V11.0156H52.4531V14.4375H46.4062V20.4531H42.9844V14.4375Z" fill="#FA8B02"/>
</svg>
