<svg width="25" height="24" viewBox="0 0 25 24" fill="none" xmlns="http://www.w3.org/2000/svg">
<path d="M7.01465 2.9502C7.24095 2.94773 7.45788 3.02444 7.61426 3.15723C7.77118 3.29055 7.86811 3.48143 7.84766 3.7041C7.8225 3.97108 7.88165 4.17304 7.99023 4.34668C8.10015 4.52241 8.26173 4.67098 8.44434 4.83008L8.69531 5.03516C9.9666 6.00415 11.4343 6.14549 12.999 5.95996C13.9397 5.85163 14.8863 5.68848 15.8447 5.68848C17.5934 5.6885 19.0336 6.36642 20.209 7.63867C20.2623 7.69647 20.3241 7.7627 20.3564 7.83691C20.3732 7.87534 20.3833 7.91717 20.3799 7.96289C20.3765 8.00855 20.3608 8.05507 20.3311 8.10254C20.2717 8.19735 20.1944 8.24579 20.1064 8.25488C20.0219 8.26354 19.9341 8.23513 19.8525 8.19434C18.8688 7.69862 17.8916 7.829 16.9092 8.23438C16.8633 8.25295 16.8169 8.27187 16.7715 8.29199C16.5982 8.36906 16.4316 8.46086 16.2734 8.56543C15.503 9.07267 14.4778 9.78023 13.4414 10.4316C12.4052 11.0829 11.3519 11.6819 10.5244 11.9707C9.72066 12.2517 8.90592 12.3312 8.07812 12.0723C8.02896 12.0568 7.98954 12.0476 7.95898 12.0449C7.92853 12.0422 7.91139 12.0458 7.90137 12.0518C7.89246 12.057 7.88278 12.068 7.875 12.0938C7.86693 12.1206 7.86215 12.1603 7.86328 12.2168C7.87268 12.7393 7.87111 13.2618 7.86328 13.7832C7.86335 13.8666 7.87529 13.9107 7.89844 13.9385C7.92174 13.9663 7.96535 13.9886 8.05664 14.0049C8.48335 14.0807 8.79165 14.2266 8.99219 14.4697C9.19252 14.7126 9.27923 15.0443 9.2793 15.4775L9.29004 16.7305C9.29258 17.1487 9.29011 17.5672 9.27051 17.9844C9.23014 18.8424 9.35376 19.6521 9.71973 20.4258C9.76884 20.5308 9.8013 20.6215 9.8125 20.6992C9.82374 20.7775 9.81464 20.8478 9.77539 20.9043C9.73648 20.9602 9.67385 20.9949 9.59668 21.0156C9.51954 21.0363 9.42233 21.0449 9.30664 21.0449V21.0439C8.4182 21.0494 7.53331 21.0373 6.64648 21.0498C6.48329 21.0518 6.34394 21.0213 6.25293 20.9385C6.1589 20.8528 6.1286 20.7229 6.15723 20.5566C6.23189 20.1251 6.17656 19.7611 6.02051 19.4453C5.90316 19.2079 5.72757 18.9955 5.50391 18.8008L5.26465 18.6113C4.77988 18.2622 4.57561 17.77 4.62695 17.1689C4.63964 17.0182 4.63926 16.8659 4.63672 16.7119C4.63419 16.5587 4.62927 16.4024 4.63281 16.2471V16.2461C4.64516 15.9103 4.78178 15.5909 5.0166 15.3506C5.25148 15.1103 5.5679 14.9663 5.90332 14.9463L5.99316 14.9346C6.07067 14.9192 6.11244 14.8926 6.1377 14.8584C6.17382 14.8095 6.18651 14.7317 6.18652 14.5996C6.18105 11.9392 6.18164 9.27854 6.18164 6.61816V6.26465C6.18008 5.42205 6.17409 3.94664 6.1875 3.70996C6.21264 3.25392 6.5608 2.95519 7.01465 2.9502ZM6.94922 20.0674C6.90479 20.0674 6.86172 20.085 6.83008 20.1162C6.79865 20.1473 6.78003 20.1892 6.7793 20.2334V20.2344C6.77747 20.311 6.79227 20.353 6.81445 20.377C6.83621 20.4003 6.87605 20.4179 6.9541 20.418H7.89355C8.1832 20.418 8.46723 20.4263 8.75098 20.4131C8.78374 20.4114 8.82217 20.4174 8.85352 20.4219C8.88756 20.4267 8.9167 20.4302 8.94141 20.4287C8.96544 20.4272 8.97773 20.4214 8.98438 20.4141C8.99137 20.4062 9.00173 20.3863 9 20.3389C8.99739 20.2707 8.98334 20.2012 8.9502 20.1504C8.91927 20.1032 8.86874 20.0678 8.77832 20.0674H6.94922ZM8.43848 14.8223C8.2807 14.6753 8.10393 14.5833 7.92578 14.6553C7.89239 14.6688 7.87428 14.6875 7.86328 14.708C7.85163 14.7298 7.84614 14.7575 7.8457 14.792C7.84527 14.8266 7.84973 14.8646 7.85547 14.9043C7.86095 14.9422 7.86721 14.9837 7.86914 15.0205L7.87012 15.1582C7.86106 15.2866 7.82275 15.3871 7.74707 15.457C7.64732 15.5492 7.49577 15.5766 7.30859 15.5674C6.88324 15.5503 6.45388 15.5619 6.02344 15.5674C5.75309 15.5705 5.56824 15.6333 5.44922 15.7539C5.33004 15.8747 5.26792 16.0627 5.26367 16.3369C5.25906 16.6442 5.27602 16.965 5.25879 17.2783C5.23953 17.6141 5.36929 17.856 5.61426 18.0957C5.71221 18.1911 5.81729 18.2806 5.92383 18.3711C6.02991 18.4612 6.13759 18.5526 6.23926 18.6494C6.44304 18.8435 6.62584 19.0635 6.72852 19.3564C6.73814 19.3841 6.75111 19.4013 6.76465 19.4121C6.77848 19.4231 6.79624 19.4302 6.81836 19.4346C6.84091 19.4391 6.8667 19.4407 6.89551 19.4404C6.9098 19.4403 6.92443 19.4399 6.93945 19.4395C6.95413 19.439 6.96935 19.4385 6.98438 19.4385H6.98535C7.45081 19.4439 7.92535 19.4277 8.39453 19.4434C8.51317 19.4487 8.57183 19.4286 8.60254 19.3955C8.63456 19.3609 8.65115 19.2978 8.64844 19.1816C8.63434 18.5433 8.64258 17.9043 8.64258 17.2676V15.3896C8.64334 15.166 8.59976 14.9713 8.43945 14.8223H8.43848ZM7.01953 3.56836C6.94424 3.56708 6.89402 3.59115 6.86133 3.62695C6.82766 3.6639 6.80684 3.72018 6.80469 3.79395C6.79534 4.07903 6.79882 6.53935 6.80273 6.82812V14.5781C6.80273 14.6143 6.79842 14.6526 6.79492 14.6865C6.79128 14.7219 6.78925 14.7543 6.79102 14.7842C6.79277 14.8136 6.79835 14.8389 6.81055 14.8604C6.81652 14.8709 6.82429 14.8815 6.83496 14.8916L6.87598 14.9209L6.87891 14.9219C6.91433 14.9433 6.9547 14.9547 6.99609 14.9551C7.03771 14.9554 7.07932 14.9449 7.11523 14.9238C7.15102 14.9028 7.18016 14.8723 7.2002 14.8359C7.22029 14.7995 7.23089 14.7584 7.22949 14.7168L7.22852 14.7139V3.80078H7.22949C7.22718 3.72452 7.20762 3.66807 7.17578 3.63086C7.1448 3.59477 7.09567 3.56973 7.01953 3.56836ZM7.91113 5.19434C7.87473 5.22909 7.86395 5.2646 7.86133 5.30078C7.85957 5.32513 7.86125 5.35062 7.86426 5.37891C7.8671 5.40563 7.87106 5.43709 7.87109 5.4668C7.86718 7.31916 7.87679 9.17193 7.86035 11.0234C7.85888 11.1659 7.88539 11.256 7.93555 11.3193C7.98635 11.3833 8.06775 11.4278 8.19238 11.4658C9.08914 11.736 9.94391 11.5869 10.7842 11.2168C11.9672 10.691 12.9897 9.91027 14.0625 9.1875C14.2797 9.04087 15.5085 8.29327 15.9971 7.99512C16.0543 7.95007 16.1177 7.91268 16.1846 7.88379C16.9616 7.46848 17.8237 7.24088 18.7031 7.21484C18.0068 6.69455 17.1728 6.38877 16.3027 6.3418H16.3018C15.2291 6.26952 14.1816 6.44631 13.1201 6.58203C11.1937 6.82857 9.39854 6.57158 7.91113 5.19434Z" fill="#333333" stroke="#333333" stroke-width="0.1"/>
</svg>
